<?xml version="1.0" encoding="utf-8"?>
<!-- Generator: Adobe Illustrator 26.0.0, SVG Export Plug-In . SVG Version: 6.00 Build 0)  -->
<svg version="1.1" id="Camada_1" xmlns="http://www.w3.org/2000/svg" xmlns:xlink="http://www.w3.org/1999/xlink" x="0px" y="0px"
	 viewBox="0 0 1920 1080" style="enable-background:new 0 0 1920 1080;" xml:space="preserve">
<style type="text/css">
	.st0{fill:#7C3AED;}
	.st1{fill:#FFFFFF;}
</style>
<g>
	<circle class="st0" cx="969.5" cy="548.5" r="277.5"/>
</g>
<g>
	<path class="st1" d="M864.8,665h-36.6c-11.7,0-21.2-9.5-21.2-21.2V453.2c0-11.7,9.5-21.2,21.2-21.2h36.6c11.7,0,21.2,9.5,21.2,21.2
		v190.6C886,655.5,876.5,665,864.8,665z"/>
</g>
<g>
	<path class="st1" d="M798,625h-31c-10,0-18-8.1-18-18V487c0-10,8.1-18,18-18h31V625z"/>
</g>
<g>
	<path class="st1" d="M1071.2,432h36.6c11.7,0,21.2,9.5,21.2,21.2v190.6c0,11.7-9.5,21.2-21.2,21.2h-36.6
		c-11.7,0-21.2-9.5-21.2-21.2V453.2C1050,441.5,1059.5,432,1071.2,432z"/>
</g>
<g>
	<path class="st1" d="M1139,471h31c10,0,18,8.1,18,18V609c0,10-8.1,18-18,18h-31V471z"/>
</g>
<g>
	<rect x="899" y="516" class="st1" width="138" height="48"/>
</g>
</svg>
