<svg xmlns="http://www.w3.org/2000/svg" width="1080" height="900" viewBox="0 0 1080 900">
<g>
<path d="M 365.00 368.00 L 395.00 368.00 L 395.00 404.50 C395.00,424.58 395.34,440.99 395.75,440.98 C396.16,440.96 412.46,424.54 431.96,404.48 L 467.42 368.00 L 487.96 368.05 L 508.50 368.10 L 428.52 446.81 L 430.51 449.11 C431.60,450.37 449.56,469.87 470.41,492.45 C491.26,515.03 509.46,534.74 510.85,536.25 L 513.37 539.00 L 470.50 538.86 L 433.65 496.93 C413.38,473.87 396.39,455.00 395.90,455.00 C395.38,455.00 395.00,472.78 395.00,497.00 L 395.00 539.00 L 365.00 539.00 L 365.00 368.00 ZM 545.25 540.48 C532.56,537.73 520.91,528.26 517.46,517.89 C515.05,510.62 515.78,498.15 519.01,491.48 C526.93,475.11 548.63,467.03 584.75,467.01 L 596.00 467.00 L 595.99 464.25 C595.98,455.74 590.21,447.40 582.19,444.31 C575.80,441.84 562.40,441.86 555.00,444.34 C551.97,445.36 546.95,447.88 543.84,449.96 L 538.18 453.73 L 530.84 446.29 L 523.50 438.86 L 527.68 435.10 C538.21,425.65 552.84,420.87 571.50,420.76 C599.07,420.61 613.27,429.59 619.75,451.26 C621.03,455.54 621.40,464.09 621.74,497.75 L 622.16 539.00 L 596.00 539.00 L 596.00 522.60 L 590.96 528.26 C580.54,539.95 563.62,544.47 545.25,540.48 ZM 829.00 540.66 C820.48,538.64 816.43,536.52 810.61,531.02 C804.73,525.46 800.65,517.72 799.00,508.98 C798.44,506.04 798.00,485.99 798.00,463.36 L 798.00 423.00 L 826.89 423.00 L 827.25 460.25 C827.63,499.16 827.88,501.56 832.26,508.06 C835.98,513.58 840.36,515.51 849.00,515.44 C857.09,515.38 861.23,513.88 866.34,509.14 C873.90,502.13 874.98,495.30 874.99,454.72 L 875.00 422.95 L 889.25 423.22 L 903.50 423.50 L 904.02 539.00 L 876.08 539.00 L 875.50 520.50 L 872.76 525.17 C869.13,531.33 862.95,536.50 856.08,539.10 C849.15,541.72 836.55,542.45 829.00,540.66 ZM 952.08 540.55 C943.38,538.89 932.31,533.65 926.12,528.26 L 921.74 524.44 L 931.50 515.20 L 941.26 505.97 L 945.99 510.39 C952.59,516.56 958.24,519.21 966.00,519.76 C981.94,520.89 991.83,512.30 986.48,501.96 C984.34,497.82 977.63,494.75 963.00,491.19 C956.12,489.52 947.83,487.16 944.56,485.94 C936.95,483.09 929.98,476.32 927.67,469.54 C925.64,463.60 925.51,452.95 927.38,446.74 C932.77,428.82 955.36,417.88 980.52,421.00 C985.29,421.59 991.50,422.96 994.32,424.03 C1000.64,426.43 1009.31,432.30 1011.51,435.66 C1013.29,438.38 1013.27,438.41 997.76,451.93 L 994.03 455.18 L 991.49 452.17 C987.39,447.30 979.67,444.00 972.37,444.00 C961.72,444.00 955.00,448.24 955.00,454.96 C955.00,462.33 958.86,464.70 978.79,469.59 C1000.28,474.86 1009.52,480.40 1014.37,490.91 C1017.49,497.67 1017.37,511.50 1014.13,518.71 C1010.03,527.83 999.91,535.56 987.00,539.42 C979.31,541.73 961.31,542.31 952.08,540.55 ZM 708.00 423.00 L 737.00 423.00 L 737.00 441.47 L 740.48 436.30 C748.97,423.70 765.51,417.61 780.25,421.65 C781.81,422.08 782.00,423.65 782.00,436.17 C782.00,449.14 781.87,450.16 780.25,449.52 C779.29,449.13 775.10,448.58 770.95,448.28 C757.02,447.29 746.62,452.33 740.60,463.00 L 737.50 468.50 L 736.90 539.00 L 708.00 539.00 L 708.00 423.00 ZM 650.00 422.95 L 664.25 423.22 L 678.50 423.50 L 679.02 539.00 L 650.00 539.00 L 650.00 422.95 ZM 580.52 517.23 C589.05,512.84 593.13,505.93 593.80,494.75 L 594.26 487.00 L 586.35 487.00 C559.85,487.00 545.00,493.28 545.00,504.49 C545.00,510.31 546.61,513.59 550.69,516.11 C555.98,519.38 558.92,519.98 568.02,519.62 C574.12,519.37 577.67,518.70 580.52,517.23 ZM 654.78 398.95 C645.88,394.25 643.04,382.39 648.88,374.32 C652.49,369.35 657.31,367.00 663.93,367.00 C670.39,367.00 674.84,368.84 678.27,372.91 C685.61,381.64 683.13,393.83 672.95,399.03 C667.88,401.61 659.76,401.58 654.78,398.95 Z" fill="rgba(0,0,0,1)"/>
<path d="M 89.13 591.75 C89.79,590.51 91.98,587.25 93.99,584.50 C96.00,581.75 100.98,574.78 105.04,569.00 C109.10,563.22 115.84,553.78 120.03,548.00 C127.73,537.37 150.82,505.23 154.50,500.03 C155.60,498.47 159.65,492.81 163.50,487.44 C174.43,472.20 178.00,466.88 178.00,465.81 C178.00,465.26 173.34,457.32 167.65,448.16 C161.96,439.00 154.46,426.77 150.98,421.00 C147.51,415.23 140.69,404.08 135.83,396.23 C127.82,383.29 126.12,380.00 127.45,380.00 C127.87,380.00 161.64,400.75 169.00,405.53 C170.93,406.78 181.45,413.25 192.38,419.91 L 212.26 432.01 L 216.58 429.25 C218.96,427.74 247.77,407.26 280.62,383.75 C313.47,360.24 340.55,341.22 340.81,341.48 C341.07,341.74 340.65,342.81 339.89,343.86 C332.69,353.77 318.19,373.92 317.00,375.68 C316.17,376.89 307.08,389.59 296.78,403.88 C286.49,418.17 275.86,432.94 273.16,436.68 C251.55,466.72 250.01,469.15 251.18,471.36 C252.43,473.72 274.42,509.57 279.48,517.50 C281.23,520.25 285.75,527.67 289.51,534.00 C293.27,540.33 297.61,547.38 299.17,549.68 C304.15,557.03 303.40,556.87 287.50,547.19 C280.90,543.17 274.60,539.35 273.50,538.69 C272.40,538.04 270.07,536.49 268.32,535.25 C266.57,534.01 264.89,533.00 264.58,533.00 C264.28,533.00 253.40,526.42 240.41,518.37 L 216.78 503.74 L 213.64 505.40 C211.91,506.31 208.02,508.85 205.00,511.05 C201.98,513.25 198.35,515.82 196.95,516.77 C195.55,517.72 185.03,525.25 173.58,533.50 C162.13,541.75 149.52,550.75 145.57,553.50 C141.61,556.25 135.33,560.75 131.61,563.50 C124.27,568.92 118.25,573.27 109.43,579.50 C106.32,581.70 100.57,585.86 96.64,588.75 C88.78,594.54 87.34,595.11 89.13,591.75 ZM 204.50 568.41 C190.78,566.48 179.07,563.04 168.75,557.92 C164.32,555.72 162.00,553.98 162.00,552.84 C162.00,549.94 163.71,549.82 168.71,552.36 C184.64,560.42 196.69,563.22 215.28,563.17 C222.39,563.15 230.51,562.60 233.35,561.96 C241.44,560.10 254.66,555.09 261.21,551.38 C267.41,547.88 271.01,547.09 270.98,549.25 C270.96,551.47 269.63,552.57 262.00,556.71 C248.27,564.15 235.10,567.71 218.85,568.37 C212.61,568.62 206.15,568.64 204.50,568.41 ZM 294.45 523.92 C294.04,523.26 295.75,518.70 298.32,513.61 C304.94,500.50 305.64,498.60 307.93,487.34 C312.17,466.55 309.77,444.90 301.32,427.51 C299.45,423.66 298.05,419.61 298.21,418.51 C298.73,414.90 301.44,416.40 304.41,421.93 C316.90,445.23 318.54,479.14 308.42,504.43 C302.33,519.64 296.68,527.52 294.45,523.92 ZM 125.83 516.25 C123.61,513.62 118.32,501.04 116.63,494.37 C111.08,472.48 112.64,449.28 121.01,428.97 C125.13,418.99 130.88,410.00 133.14,410.00 C135.97,410.00 135.44,412.19 130.18,422.26 C121.25,439.38 118.57,450.11 118.64,468.50 C118.68,479.38 119.12,483.13 121.38,491.50 C122.86,497.00 125.41,504.07 127.04,507.21 C130.19,513.28 130.90,518.00 128.65,518.00 C127.92,518.00 126.64,517.21 125.83,516.25 ZM 158.25 388.29 C151.67,385.88 170.30,375.00 189.71,369.92 C201.12,366.94 222.24,366.20 232.60,368.43 C243.17,370.70 249.27,372.67 256.69,376.20 C264.15,379.76 265.63,381.23 263.52,382.99 C262.28,384.01 261.03,383.76 256.62,381.60 C238.82,372.89 217.80,370.02 197.38,373.52 C188.72,375.00 175.78,379.43 169.25,383.15 C167.46,384.17 164.54,385.84 162.75,386.88 C160.96,387.91 158.94,388.54 158.25,388.29 Z" fill="rgba(77,172,251,1)"/>
</g>
</svg>