<svg version="1.2" xmlns="http://www.w3.org/2000/svg" viewBox="0 0 1080 900" width="1080" height="900">
	<style>
		.s0 { fill: #4dacfb } 
	</style>
	<g>
		<path class="s0" d="m92.45 892.65c2.35-4.43 10.16-16.05 17.33-25.86 7.17-9.81 24.93-34.67 39.41-55.29 14.48-20.61 38.52-54.28 53.47-74.9 27.46-37.91 109.82-152.55 122.94-171.09 3.93-5.57 18.37-25.76 32.1-44.91 38.99-54.36 51.72-73.33 51.72-77.15 0-1.96-16.62-30.28-36.91-62.95-20.3-32.67-47.05-76.29-59.46-96.87-12.38-20.58-36.7-60.35-54.04-88.35-28.57-46.15-34.63-57.89-29.89-57.89 1.5 0 121.95 74.01 148.2 91.06 6.89 4.46 44.41 27.53 83.39 51.29l70.91 43.16 15.41-9.85c8.49-5.38 111.24-78.43 228.41-162.28 117.17-83.86 213.75-151.7 214.68-150.77 0.93 0.93-0.57 4.74-3.28 8.49-25.68 35.35-77.4 107.21-81.64 113.49-2.96 4.32-35.38 49.62-72.12 100.58-36.7 50.97-74.62 103.65-84.25 116.99-77.07 107.15-82.57 115.81-78.39 123.7 4.45 8.41 82.89 136.28 100.93 164.57 6.25 9.8 22.37 36.27 35.78 58.85 13.41 22.57 28.89 47.72 34.45 55.92 17.77 26.22 15.09 25.65-41.62-8.88-23.54-14.34-46.01-27.96-49.93-30.32-3.93-2.31-12.24-7.84-18.48-12.26-6.24-4.43-12.23-8.03-13.34-8.03-1.07 0-39.88-23.47-86.21-52.18l-84.28-52.18-11.2 5.92c-6.17 3.24-20.04 12.3-30.82 20.15-10.77 7.85-23.71 17.01-28.71 20.4-4.99 3.39-42.51 30.25-83.35 59.67-40.84 29.43-85.82 61.53-99.91 71.34-14.12 9.81-36.52 25.86-49.79 35.67-26.18 19.33-47.65 34.84-79.11 57.06-11.09 7.85-31.6 22.69-45.62 33-28.03 20.65-33.17 22.68-26.78 10.7zm411.49-83.25c-48.93-6.89-90.7-19.16-127.51-37.42-15.8-7.84-24.08-14.05-24.08-18.12 0-10.34 6.1-10.77 23.94-1.71 56.82 28.75 99.79 38.74 166.1 38.56 25.36-0.07 54.32-2.03 64.45-4.32 28.86-6.63 76.01-24.5 99.37-37.73 22.11-12.49 34.95-15.3 34.85-7.6-0.07 7.92-4.82 11.84-32.03 26.61-48.97 26.53-95.95 39.23-153.91 41.59-22.25 0.89-45.29 0.96-51.18 0.14zm320.83-158.69c-1.46-2.35 4.63-18.61 13.8-36.77 23.61-46.76 26.11-53.54 34.28-93.7 15.12-74.15 6.56-151.37-23.58-213.39-6.67-13.74-11.66-28.18-11.09-32.1 1.85-12.88 11.52-7.53 22.11 12.19 44.55 83.11 50.4 204.06 14.31 294.26-21.73 54.25-41.88 82.35-49.83 69.51zm-601.42-27.35c-7.92-9.38-26.79-54.25-32.82-78.04-19.79-78.08-14.23-160.83 15.62-233.27 14.7-35.59 35.21-67.66 43.27-67.66 10.09 0 8.2 7.81-10.56 43.73-31.85 61.06-41.41 99.33-41.16 164.93 0.14 38.8 1.71 52.18 9.77 82.03 5.28 19.62 14.38 44.83 20.19 56.03 11.24 21.65 13.77 38.49 5.74 38.49-2.6 0-7.16-2.82-10.05-6.24zm115.63-456.4c-23.47-8.6 42.98-47.4 112.21-65.52 40.7-10.63 116.02-13.27 152.98-5.32 37.7 8.1 59.45 15.13 85.92 27.72 26.61 12.69 31.88 17.94 24.36 24.21-4.42 3.64-8.88 2.75-24.61-4.95-63.49-31.07-138.46-41.31-211.29-28.82-30.89 5.28-77.05 21.08-100.34 34.35-6.38 3.63-16.8 9.59-23.18 13.3-6.38 3.67-13.59 5.92-16.05 5.03z"/>
	</g>
</svg>