<svg version="1.2" xmlns="http://www.w3.org/2000/svg" viewBox="0 0 1080 900" width="1080" height="900">
	<style>
		.s0 { fill: #ffffff } 
		.s1 { fill: #4dacfb } 
	</style>
	<g>
		<path class="s0" d="m365 368h30v36.5c0 20.08 0.34 36.49 0.75 36.48 0.41-0.02 16.71-16.44 36.21-36.5l35.46-36.48 20.54 0.05 20.54 0.05-79.98 78.71 1.99 2.3c1.09 1.26 19.05 20.76 39.9 43.34 20.85 22.58 39.05 42.29 40.44 43.8l2.52 2.75-42.87-0.14-36.85-41.93c-20.27-23.06-37.26-41.93-37.75-41.93-0.52 0-0.9 17.78-0.9 42v42h-30zm180.25 172.48c-12.69-2.75-24.34-12.22-27.79-22.59-2.41-7.27-1.68-19.74 1.55-26.41 7.92-16.37 29.62-24.45 65.74-24.47l11.25-0.01-0.01-2.75c-0.01-8.51-5.78-16.85-13.8-19.94-6.39-2.47-19.79-2.45-27.19 0.03-3.03 1.02-8.05 3.54-11.16 5.62l-5.66 3.77-7.34-7.44-7.34-7.43 4.18-3.76c10.53-9.45 25.16-14.23 43.82-14.34 27.57-0.15 41.77 8.83 48.25 30.5 1.28 4.28 1.65 12.83 1.99 46.49l0.42 41.25h-26.16v-16.4l-5.04 5.66c-10.42 11.69-27.34 16.21-45.71 12.22zm283.75 0.18c-8.52-2.02-12.57-4.14-18.39-9.64-5.88-5.56-9.96-13.3-11.61-22.04-0.56-2.94-1-22.99-1-45.62v-40.36h28.89l0.36 37.25c0.38 38.91 0.63 41.31 5.01 47.81 3.72 5.52 8.1 7.45 16.74 7.38 8.09-0.06 12.23-1.56 17.34-6.3 7.56-7.01 8.64-13.84 8.65-54.42l0.01-31.77 14.25 0.27 14.25 0.28 0.52 115.5h-27.94l-0.58-18.5-2.74 4.67c-3.63 6.16-9.81 11.33-16.68 13.93-6.93 2.62-19.53 3.35-27.08 1.56zm123.08-0.11c-8.7-1.66-19.77-6.9-25.96-12.29l-4.38-3.82 9.76-9.24 9.76-9.23 4.73 4.42c6.6 6.17 12.25 8.82 20.01 9.37 15.94 1.13 25.83-7.46 20.48-17.8-2.14-4.14-8.85-7.21-23.48-10.77-6.88-1.67-15.17-4.03-18.44-5.25-7.61-2.85-14.58-9.62-16.89-16.4-2.03-5.94-2.16-16.59-0.29-22.8 5.39-17.92 27.98-28.86 53.14-25.74 4.77 0.59 10.98 1.96 13.8 3.03 6.32 2.4 14.99 8.27 17.19 11.63 1.78 2.72 1.76 2.75-13.75 16.27l-3.73 3.25-2.54-3.01c-4.1-4.87-11.82-8.17-19.12-8.17-10.65 0-17.37 4.24-17.37 10.96 0 7.37 3.86 9.74 23.79 14.63 21.49 5.27 30.73 10.81 35.58 21.32 3.12 6.76 3 20.59-0.24 27.8-4.1 9.12-14.22 16.85-27.13 20.71-7.69 2.31-25.69 2.89-34.92 1.13zm-244.08-117.55h29v18.47l3.48-5.17c8.49-12.6 25.03-18.69 39.77-14.65 1.56 0.43 1.75 2 1.75 14.52 0 12.97-0.13 13.99-1.75 13.35-0.96-0.39-5.15-0.94-9.3-1.24-13.93-0.99-24.33 4.05-30.35 14.72l-3.1 5.5-0.6 70.5h-28.9zm-58-0.05l14.25 0.27 14.25 0.28 0.52 115.5h-29.02zm-69.48 94.28c8.53-4.39 12.61-11.3 13.28-22.48l0.46-7.75h-7.91c-26.5 0-41.35 6.28-41.35 17.49 0 5.82 1.61 9.1 5.69 11.62 5.29 3.27 8.23 3.87 17.33 3.51 6.1-0.25 9.65-0.92 12.5-2.39zm74.26-118.28c-8.9-4.7-11.74-16.56-5.9-24.63 3.61-4.97 8.43-7.32 15.05-7.32 6.46 0 10.91 1.84 14.34 5.91 7.34 8.73 4.86 20.92-5.32 26.12-5.07 2.58-13.19 2.55-18.17-0.08z"/>
		<path class="s1" d="m89.13 591.75c0.66-1.24 2.85-4.5 4.86-7.25 2.01-2.75 6.99-9.72 11.05-15.5 4.06-5.78 10.8-15.22 14.99-21 7.7-10.63 30.79-42.77 34.47-47.97 1.1-1.56 5.15-7.22 9-12.59 10.93-15.24 14.5-20.56 14.5-21.63 0-0.55-4.66-8.49-10.35-17.65-5.69-9.16-13.19-21.39-16.67-27.16-3.47-5.77-10.29-16.92-15.15-24.77-8.01-12.94-9.71-16.23-8.38-16.23 0.42 0 34.19 20.75 41.55 25.53 1.93 1.25 12.45 7.72 23.38 14.38l19.88 12.1 4.32-2.76c2.38-1.51 31.19-21.99 64.04-45.5 32.85-23.51 59.93-42.53 60.19-42.27 0.26 0.26-0.16 1.33-0.92 2.38-7.2 9.91-21.7 30.06-22.89 31.82-0.83 1.21-9.92 13.91-20.22 28.2-10.29 14.29-20.92 29.06-23.62 32.8-21.61 30.04-23.15 32.47-21.98 34.68 1.25 2.36 23.24 38.21 28.3 46.14 1.75 2.75 6.27 10.17 10.03 16.5 3.76 6.33 8.1 13.38 9.66 15.68 4.98 7.35 4.23 7.19-11.67-2.49-6.6-4.02-12.9-7.84-14-8.5-1.1-0.65-3.43-2.2-5.18-3.44-1.75-1.24-3.43-2.25-3.74-2.25-0.3 0-11.18-6.58-24.17-14.63l-23.63-14.63-3.14 1.66c-1.73 0.91-5.62 3.45-8.64 5.65-3.02 2.2-6.65 4.77-8.05 5.72-1.4 0.95-11.92 8.48-23.37 16.73-11.45 8.25-24.06 17.25-28.01 20-3.96 2.75-10.24 7.25-13.96 10-7.34 5.42-13.36 9.77-22.18 16-3.11 2.2-8.86 6.36-12.79 9.25-7.86 5.79-9.3 6.36-7.51 3zm115.37-23.34c-13.72-1.93-25.43-5.37-35.75-10.49-4.43-2.2-6.75-3.94-6.75-5.08 0-2.9 1.71-3.02 6.71-0.48 15.93 8.06 27.98 10.86 46.57 10.81 7.11-0.02 15.23-0.57 18.07-1.21 8.09-1.86 21.31-6.87 27.86-10.58 6.2-3.5 9.8-4.29 9.77-2.13-0.02 2.22-1.35 3.32-8.98 7.46-13.73 7.44-26.9 11-43.15 11.66-6.24 0.25-12.7 0.27-14.35 0.04zm89.95-44.49c-0.41-0.66 1.3-5.22 3.87-10.31 6.62-13.11 7.32-15.01 9.61-26.27 4.24-20.79 1.84-42.44-6.61-59.83-1.87-3.85-3.27-7.9-3.11-9 0.52-3.61 3.23-2.11 6.2 3.42 12.49 23.3 14.13 57.21 4.01 82.5-6.09 15.21-11.74 23.09-13.97 19.49zm-168.62-7.67c-2.22-2.63-7.51-15.21-9.2-21.88-5.55-21.89-3.99-45.09 4.38-65.4 4.12-9.98 9.87-18.97 12.13-18.97 2.83 0 2.3 2.19-2.96 12.26-8.93 17.12-11.61 27.85-11.54 46.24 0.04 10.88 0.48 14.63 2.74 23 1.48 5.5 4.03 12.57 5.66 15.71 3.15 6.07 3.86 10.79 1.61 10.79-0.73 0-2.01-0.79-2.82-1.75zm32.42-127.96c-6.58-2.41 12.05-13.29 31.46-18.37 11.41-2.98 32.53-3.72 42.89-1.49 10.57 2.27 16.67 4.24 24.09 7.77 7.46 3.56 8.94 5.03 6.83 6.79-1.24 1.02-2.49 0.77-6.9-1.39-17.8-8.71-38.82-11.58-59.24-8.08-8.66 1.48-21.6 5.91-28.13 9.63-1.79 1.02-4.71 2.69-6.5 3.73-1.79 1.03-3.81 1.66-4.5 1.41z"/>
	</g>
</svg>